<svg width="30" height="30" viewBox="0 0 30 30" fill="none" xmlns="http://www.w3.org/2000/svg">
<rect width="30" height="30" rx="15" fill="#00272B"/>
<path d="M8 21V20.803L8.40053 20.6652C8.85447 20.5207 9.08144 20.1465 9.08144 19.5424V9.45758C9.08144 9.19495 9.04806 8.98485 8.9813 8.82727C8.9279 8.6697 8.77437 8.53838 8.52069 8.43333L8 8.19697V8H11.8652L15.5701 17.5333L19.0547 8H23V8.19697L22.6796 8.31515C22.4259 8.40707 22.2523 8.53838 22.1589 8.70909C22.0654 8.86667 22.0187 9.07677 22.0187 9.33939V19.6409C22.0187 19.9035 22.0521 20.1071 22.1188 20.2515C22.1856 20.396 22.3458 20.5207 22.5995 20.6258L23 20.803V21H18.0134V20.803L18.4339 20.6258C18.6876 20.5207 18.8478 20.396 18.9145 20.2515C18.9813 20.1071 19.0147 19.9035 19.0147 19.6409V15.2091L19.0547 9.57576L14.8692 21H13.8678L9.502 9.71364L9.56208 14.6182V19.5818C9.56208 19.8707 9.60214 20.1071 9.68224 20.2909C9.7757 20.4616 9.94927 20.5864 10.2029 20.6652L10.6435 20.803V21H8Z" fill="#C49BDE"/>
</svg>
